<svg viewBox="0 0 168 40" fill="none" xmlns="http://www.w3.org/2000/svg">
  <!-- Logo mark -->
  <g transform="translate(0,4)">
    <rect width="32" height="32" rx="8" fill="#1c825b"/>
    <path
      d="M12.5 9.5c0-1.1.9-2 2-2s2 .9 2 2v5.2c0 .9.4 1.3 1.1 1.3.8 0 1.1-.5 1.1-1.5v-1.2c0-1.1.9-2 2-2s2 .9 2 2v2.1c0 3.2-2 5.1-5 5.1-1.2 0-2.2-.4-2.9-1v3.7c0 1.1-.9 2-2 2s-2-.9-2-2V9.5Z"
      fill="#ffffff"
    />
    <circle cx="10.6" cy="11" r="1.6" fill="#ffffff"/>
  </g>
  <!-- Wordmark -->
  <text
    font-family="system-ui, -apple-system, 'Helvetica Neue', Arial, sans-serif"
    font-size="20"
    font-weight="600"
    letter-spacing="-0.3"
    y="27"
  >
    <tspan x="40" fill="#0f172a">Nopal</tspan><tspan fill="#1c825b">AI</tspan>
  </text>
</svg>
